<mxfile host="app.diagrams.net" agent="Mozilla/5.0 (Windows NT 10.0; Win64; x64) AppleWebKit/537.36 (KHTML, like Gecko) Chrome/137.0.0.0 Safari/537.36" version="27.2.0">
  <diagram name="Page-1" id="7E9gSxAwbtiFRUaCC5ca">
    <mxGraphModel dx="883" dy="486" grid="1" gridSize="10" guides="1" tooltips="1" connect="1" arrows="1" fold="1" page="1" pageScale="1" pageWidth="850" pageHeight="1100" math="0" shadow="0">
      <root>
        <mxCell id="0" />
        <mxCell id="1" parent="0" />
        <mxCell id="lUWKuF_8CkeKNWvW8N9--1" value="a" style="ellipse;whiteSpace=wrap;html=1;" parent="1" vertex="1">
          <mxGeometry x="380" y="120" width="30" height="30" as="geometry" />
        </mxCell>
        <mxCell id="lUWKuF_8CkeKNWvW8N9--2" value="b" style="ellipse;whiteSpace=wrap;html=1;" parent="1" vertex="1">
          <mxGeometry x="310" y="200" width="30" height="30" as="geometry" />
        </mxCell>
        <mxCell id="lUWKuF_8CkeKNWvW8N9--3" value="b" style="ellipse;whiteSpace=wrap;html=1;" parent="1" vertex="1">
          <mxGeometry x="450" y="200" width="30" height="30" as="geometry" />
        </mxCell>
        <mxCell id="lUWKuF_8CkeKNWvW8N9--4" value="" style="endArrow=none;dashed=1;html=1;rounded=0;" parent="1" source="lUWKuF_8CkeKNWvW8N9--2" target="lUWKuF_8CkeKNWvW8N9--1" edge="1">
          <mxGeometry width="50" height="50" relative="1" as="geometry">
            <mxPoint x="410" y="300" as="sourcePoint" />
            <mxPoint x="460" y="250" as="targetPoint" />
          </mxGeometry>
        </mxCell>
        <mxCell id="lUWKuF_8CkeKNWvW8N9--5" value="" style="endArrow=none;html=1;rounded=0;" parent="1" source="lUWKuF_8CkeKNWvW8N9--3" target="lUWKuF_8CkeKNWvW8N9--1" edge="1">
          <mxGeometry width="50" height="50" relative="1" as="geometry">
            <mxPoint x="410" y="300" as="sourcePoint" />
            <mxPoint x="460" y="250" as="targetPoint" />
          </mxGeometry>
        </mxCell>
        <mxCell id="lUWKuF_8CkeKNWvW8N9--6" value="c" style="ellipse;whiteSpace=wrap;html=1;" parent="1" vertex="1">
          <mxGeometry x="260" y="260" width="30" height="30" as="geometry" />
        </mxCell>
        <mxCell id="lUWKuF_8CkeKNWvW8N9--7" value="c" style="ellipse;whiteSpace=wrap;html=1;" parent="1" vertex="1">
          <mxGeometry x="350" y="260" width="30" height="30" as="geometry" />
        </mxCell>
        <mxCell id="lUWKuF_8CkeKNWvW8N9--8" value="c" style="ellipse;whiteSpace=wrap;html=1;" parent="1" vertex="1">
          <mxGeometry x="410" y="260" width="30" height="30" as="geometry" />
        </mxCell>
        <mxCell id="lUWKuF_8CkeKNWvW8N9--9" value="c" style="ellipse;whiteSpace=wrap;html=1;" parent="1" vertex="1">
          <mxGeometry x="490" y="260" width="30" height="30" as="geometry" />
        </mxCell>
        <mxCell id="lUWKuF_8CkeKNWvW8N9--10" value="" style="endArrow=none;dashed=1;html=1;rounded=0;" parent="1" source="lUWKuF_8CkeKNWvW8N9--8" target="lUWKuF_8CkeKNWvW8N9--3" edge="1">
          <mxGeometry width="50" height="50" relative="1" as="geometry">
            <mxPoint x="410" y="310" as="sourcePoint" />
            <mxPoint x="460" y="260" as="targetPoint" />
          </mxGeometry>
        </mxCell>
        <mxCell id="lUWKuF_8CkeKNWvW8N9--11" value="" style="endArrow=none;dashed=1;html=1;rounded=0;" parent="1" source="lUWKuF_8CkeKNWvW8N9--6" target="lUWKuF_8CkeKNWvW8N9--2" edge="1">
          <mxGeometry width="50" height="50" relative="1" as="geometry">
            <mxPoint x="410" y="310" as="sourcePoint" />
            <mxPoint x="460" y="260" as="targetPoint" />
          </mxGeometry>
        </mxCell>
        <mxCell id="lUWKuF_8CkeKNWvW8N9--12" value="" style="endArrow=none;html=1;rounded=0;" parent="1" source="lUWKuF_8CkeKNWvW8N9--7" target="lUWKuF_8CkeKNWvW8N9--2" edge="1">
          <mxGeometry width="50" height="50" relative="1" as="geometry">
            <mxPoint x="300" y="280" as="sourcePoint" />
            <mxPoint x="350" y="230" as="targetPoint" />
          </mxGeometry>
        </mxCell>
        <mxCell id="lUWKuF_8CkeKNWvW8N9--14" value="" style="endArrow=none;html=1;rounded=0;" parent="1" source="lUWKuF_8CkeKNWvW8N9--9" target="lUWKuF_8CkeKNWvW8N9--3" edge="1">
          <mxGeometry width="50" height="50" relative="1" as="geometry">
            <mxPoint x="410" y="310" as="sourcePoint" />
            <mxPoint x="460" y="260" as="targetPoint" />
          </mxGeometry>
        </mxCell>
        <mxCell id="lUWKuF_8CkeKNWvW8N9--16" value="0" style="whiteSpace=wrap;html=1;aspect=fixed;" parent="1" vertex="1">
          <mxGeometry x="355" y="340" width="20" height="20" as="geometry" />
        </mxCell>
        <mxCell id="lUWKuF_8CkeKNWvW8N9--18" value="1" style="whiteSpace=wrap;html=1;aspect=fixed;" parent="1" vertex="1">
          <mxGeometry x="415" y="340" width="20" height="20" as="geometry" />
        </mxCell>
        <mxCell id="lUWKuF_8CkeKNWvW8N9--20" value="" style="endArrow=none;dashed=1;html=1;rounded=0;" parent="1" source="lUWKuF_8CkeKNWvW8N9--16" target="lUWKuF_8CkeKNWvW8N9--6" edge="1">
          <mxGeometry width="50" height="50" relative="1" as="geometry">
            <mxPoint x="410" y="310" as="sourcePoint" />
            <mxPoint x="460" y="260" as="targetPoint" />
          </mxGeometry>
        </mxCell>
        <mxCell id="lUWKuF_8CkeKNWvW8N9--21" value="" style="endArrow=none;html=1;rounded=0;" parent="1" source="lUWKuF_8CkeKNWvW8N9--6" target="lUWKuF_8CkeKNWvW8N9--18" edge="1">
          <mxGeometry width="50" height="50" relative="1" as="geometry">
            <mxPoint x="410" y="310" as="sourcePoint" />
            <mxPoint x="460" y="260" as="targetPoint" />
          </mxGeometry>
        </mxCell>
        <mxCell id="lUWKuF_8CkeKNWvW8N9--22" value="" style="endArrow=none;dashed=1;html=1;rounded=0;" parent="1" source="lUWKuF_8CkeKNWvW8N9--16" target="lUWKuF_8CkeKNWvW8N9--7" edge="1">
          <mxGeometry width="50" height="50" relative="1" as="geometry">
            <mxPoint x="410" y="310" as="sourcePoint" />
            <mxPoint x="460" y="260" as="targetPoint" />
            <Array as="points">
              <mxPoint x="370" y="310" />
            </Array>
          </mxGeometry>
        </mxCell>
        <mxCell id="lUWKuF_8CkeKNWvW8N9--23" value="" style="endArrow=none;html=1;rounded=0;" parent="1" source="lUWKuF_8CkeKNWvW8N9--16" target="lUWKuF_8CkeKNWvW8N9--7" edge="1">
          <mxGeometry width="50" height="50" relative="1" as="geometry">
            <mxPoint x="310" y="510" as="sourcePoint" />
            <mxPoint x="360" y="460" as="targetPoint" />
            <Array as="points">
              <mxPoint x="360" y="310" />
            </Array>
          </mxGeometry>
        </mxCell>
        <mxCell id="lUWKuF_8CkeKNWvW8N9--24" value="" style="endArrow=none;dashed=1;html=1;rounded=0;" parent="1" source="lUWKuF_8CkeKNWvW8N9--18" target="lUWKuF_8CkeKNWvW8N9--8" edge="1">
          <mxGeometry width="50" height="50" relative="1" as="geometry">
            <mxPoint x="410" y="340" as="sourcePoint" />
            <mxPoint x="460" y="290" as="targetPoint" />
          </mxGeometry>
        </mxCell>
        <mxCell id="lUWKuF_8CkeKNWvW8N9--25" value="" style="endArrow=none;html=1;rounded=0;" parent="1" source="lUWKuF_8CkeKNWvW8N9--16" target="lUWKuF_8CkeKNWvW8N9--8" edge="1">
          <mxGeometry width="50" height="50" relative="1" as="geometry">
            <mxPoint x="320" y="420" as="sourcePoint" />
            <mxPoint x="370" y="370" as="targetPoint" />
          </mxGeometry>
        </mxCell>
        <mxCell id="lUWKuF_8CkeKNWvW8N9--26" value="" style="endArrow=none;dashed=1;html=1;rounded=0;" parent="1" source="lUWKuF_8CkeKNWvW8N9--16" target="lUWKuF_8CkeKNWvW8N9--9" edge="1">
          <mxGeometry width="50" height="50" relative="1" as="geometry">
            <mxPoint x="440" y="350" as="sourcePoint" />
            <mxPoint x="490" y="300" as="targetPoint" />
          </mxGeometry>
        </mxCell>
        <mxCell id="lUWKuF_8CkeKNWvW8N9--27" value="" style="endArrow=none;html=1;rounded=0;" parent="1" source="lUWKuF_8CkeKNWvW8N9--18" target="lUWKuF_8CkeKNWvW8N9--9" edge="1">
          <mxGeometry width="50" height="50" relative="1" as="geometry">
            <mxPoint x="440" y="400" as="sourcePoint" />
            <mxPoint x="490" y="350" as="targetPoint" />
          </mxGeometry>
        </mxCell>
        <mxCell id="lUWKuF_8CkeKNWvW8N9--51" value="a" style="ellipse;whiteSpace=wrap;html=1;" parent="1" vertex="1">
          <mxGeometry x="770" y="140" width="30" height="30" as="geometry" />
        </mxCell>
        <mxCell id="lUWKuF_8CkeKNWvW8N9--52" value="b" style="ellipse;whiteSpace=wrap;html=1;" parent="1" vertex="1">
          <mxGeometry x="700" y="200" width="30" height="30" as="geometry" />
        </mxCell>
        <mxCell id="lUWKuF_8CkeKNWvW8N9--53" value="b" style="ellipse;whiteSpace=wrap;html=1;" parent="1" vertex="1">
          <mxGeometry x="840" y="200" width="30" height="30" as="geometry" />
        </mxCell>
        <mxCell id="lUWKuF_8CkeKNWvW8N9--54" value="" style="endArrow=none;dashed=1;html=1;rounded=0;" parent="1" source="lUWKuF_8CkeKNWvW8N9--52" target="lUWKuF_8CkeKNWvW8N9--51" edge="1">
          <mxGeometry width="50" height="50" relative="1" as="geometry">
            <mxPoint x="800" y="300" as="sourcePoint" />
            <mxPoint x="850" y="250" as="targetPoint" />
          </mxGeometry>
        </mxCell>
        <mxCell id="lUWKuF_8CkeKNWvW8N9--55" value="" style="endArrow=none;html=1;rounded=0;" parent="1" source="lUWKuF_8CkeKNWvW8N9--53" target="lUWKuF_8CkeKNWvW8N9--51" edge="1">
          <mxGeometry width="50" height="50" relative="1" as="geometry">
            <mxPoint x="800" y="300" as="sourcePoint" />
            <mxPoint x="850" y="250" as="targetPoint" />
          </mxGeometry>
        </mxCell>
        <mxCell id="lUWKuF_8CkeKNWvW8N9--58" value="c" style="ellipse;whiteSpace=wrap;html=1;" parent="1" vertex="1">
          <mxGeometry x="840" y="260" width="30" height="30" as="geometry" />
        </mxCell>
        <mxCell id="lUWKuF_8CkeKNWvW8N9--59" value="c" style="ellipse;whiteSpace=wrap;html=1;" parent="1" vertex="1">
          <mxGeometry x="770" y="260" width="30" height="30" as="geometry" />
        </mxCell>
        <mxCell id="lUWKuF_8CkeKNWvW8N9--60" value="" style="endArrow=none;dashed=1;html=1;rounded=0;" parent="1" source="lUWKuF_8CkeKNWvW8N9--58" target="lUWKuF_8CkeKNWvW8N9--53" edge="1">
          <mxGeometry width="50" height="50" relative="1" as="geometry">
            <mxPoint x="800" y="310" as="sourcePoint" />
            <mxPoint x="850" y="260" as="targetPoint" />
          </mxGeometry>
        </mxCell>
        <mxCell id="lUWKuF_8CkeKNWvW8N9--61" value="" style="endArrow=none;dashed=1;html=1;rounded=0;" parent="1" source="lUWKuF_8CkeKNWvW8N9--59" target="lUWKuF_8CkeKNWvW8N9--52" edge="1">
          <mxGeometry width="50" height="50" relative="1" as="geometry">
            <mxPoint x="800" y="310" as="sourcePoint" />
            <mxPoint x="850" y="260" as="targetPoint" />
          </mxGeometry>
        </mxCell>
        <mxCell id="lUWKuF_8CkeKNWvW8N9--62" value="" style="endArrow=none;html=1;rounded=0;" parent="1" source="lUWKuF_8CkeKNWvW8N9--64" target="lUWKuF_8CkeKNWvW8N9--52" edge="1">
          <mxGeometry width="50" height="50" relative="1" as="geometry">
            <mxPoint x="715" y="260" as="sourcePoint" />
            <mxPoint x="740" y="230" as="targetPoint" />
          </mxGeometry>
        </mxCell>
        <mxCell id="lUWKuF_8CkeKNWvW8N9--63" value="" style="endArrow=none;html=1;rounded=0;" parent="1" source="lUWKuF_8CkeKNWvW8N9--59" target="lUWKuF_8CkeKNWvW8N9--53" edge="1">
          <mxGeometry width="50" height="50" relative="1" as="geometry">
            <mxPoint x="800" y="310" as="sourcePoint" />
            <mxPoint x="850" y="260" as="targetPoint" />
          </mxGeometry>
        </mxCell>
        <mxCell id="lUWKuF_8CkeKNWvW8N9--64" value="0" style="whiteSpace=wrap;html=1;aspect=fixed;" parent="1" vertex="1">
          <mxGeometry x="745" y="340" width="20" height="20" as="geometry" />
        </mxCell>
        <mxCell id="lUWKuF_8CkeKNWvW8N9--65" value="1" style="whiteSpace=wrap;html=1;aspect=fixed;" parent="1" vertex="1">
          <mxGeometry x="805" y="340" width="20" height="20" as="geometry" />
        </mxCell>
        <mxCell id="lUWKuF_8CkeKNWvW8N9--70" value="" style="endArrow=none;dashed=1;html=1;rounded=0;" parent="1" source="lUWKuF_8CkeKNWvW8N9--65" target="lUWKuF_8CkeKNWvW8N9--58" edge="1">
          <mxGeometry width="50" height="50" relative="1" as="geometry">
            <mxPoint x="800" y="340" as="sourcePoint" />
            <mxPoint x="850" y="290" as="targetPoint" />
          </mxGeometry>
        </mxCell>
        <mxCell id="lUWKuF_8CkeKNWvW8N9--71" value="" style="endArrow=none;html=1;rounded=0;" parent="1" source="lUWKuF_8CkeKNWvW8N9--64" target="lUWKuF_8CkeKNWvW8N9--58" edge="1">
          <mxGeometry width="50" height="50" relative="1" as="geometry">
            <mxPoint x="710" y="420" as="sourcePoint" />
            <mxPoint x="760" y="370" as="targetPoint" />
          </mxGeometry>
        </mxCell>
        <mxCell id="lUWKuF_8CkeKNWvW8N9--72" value="" style="endArrow=none;dashed=1;html=1;rounded=0;" parent="1" source="lUWKuF_8CkeKNWvW8N9--64" target="lUWKuF_8CkeKNWvW8N9--59" edge="1">
          <mxGeometry width="50" height="50" relative="1" as="geometry">
            <mxPoint x="830" y="350" as="sourcePoint" />
            <mxPoint x="880" y="300" as="targetPoint" />
          </mxGeometry>
        </mxCell>
        <mxCell id="lUWKuF_8CkeKNWvW8N9--73" value="" style="endArrow=none;html=1;rounded=0;" parent="1" source="lUWKuF_8CkeKNWvW8N9--65" target="lUWKuF_8CkeKNWvW8N9--59" edge="1">
          <mxGeometry width="50" height="50" relative="1" as="geometry">
            <mxPoint x="830" y="400" as="sourcePoint" />
            <mxPoint x="880" y="350" as="targetPoint" />
          </mxGeometry>
        </mxCell>
      </root>
    </mxGraphModel>
  </diagram>
</mxfile>
